<svg width="17" height="18" viewBox="0 0 17 18" fill="none" xmlns="http://www.w3.org/2000/svg">
    <path
        d="M10 1.70398C9.9998 1.56469 9.95834 1.42859 9.88086 1.31284C9.80338 1.19709 9.69335 1.10688 9.56465 1.05361C9.43596 1.00033 9.29436 0.986373 9.15774 1.01349C9.02112 1.04061 8.89559 1.10759 8.797 1.20598L5.413 4.58898C5.2824 4.72036 5.12703 4.82451 4.95589 4.89541C4.78475 4.9663 4.60124 5.00252 4.416 5.00198H2C1.73478 5.00198 1.48043 5.10734 1.29289 5.29487C1.10536 5.48241 1 5.73676 1 6.00198V12.002C1 12.2672 1.10536 12.5216 1.29289 12.7091C1.48043 12.8966 1.73478 13.002 2 13.002H4.416C4.60124 13.0014 4.78475 13.0377 4.95589 13.1086C5.12703 13.1795 5.2824 13.2836 5.413 13.415L8.796 16.799C8.8946 16.8978 9.02031 16.9651 9.15719 16.9924C9.29408 17.0196 9.43598 17.0057 9.56493 16.9522C9.69387 16.8988 9.80405 16.8083 9.8815 16.6922C9.95895 16.5761 10.0002 16.4396 10 16.3V1.70398Z"
        fill="black" stroke="black" stroke-width="2" stroke-linecap="round" stroke-linejoin="round" />
    <path d="M15 6C15.6491 6.86548 16 7.91815 16 9C16 10.0819 15.6491 11.1345 15 12" stroke="black" stroke-width="2"
        stroke-linecap="round" stroke-linejoin="round" />
</svg>