<svg width="24" height="24" viewBox="0 0 24 24" fill="none" xmlns="http://www.w3.org/2000/svg">
<g clip-path="url(#clip0_157_419)">
<path fill-rule="evenodd" clip-rule="evenodd" d="M15.4209 15.3291C15.8592 15.7688 15.8583 16.4804 15.4191 16.9191C14.9799 17.3579 14.2683 17.3579 13.829 16.9191C13.3898 16.4804 13.389 15.7688 13.8272 15.3291C14.0383 15.1172 14.325 14.9982 14.6241 14.9982C14.9231 14.9982 15.2098 15.1172 15.4209 15.3291ZM7.82719 14.5791C7.38897 15.0188 7.38979 15.7304 7.82903 16.1691C8.26826 16.6079 8.97986 16.6079 9.4191 16.1691C9.85833 15.7304 9.85915 15.0188 9.42094 14.5791C9.20992 14.3678 8.92359 14.2491 8.625 14.2491C8.32641 14.2491 8.04008 14.3678 7.82906 14.5791H7.82719ZM8.67094 10.9228C9.10915 10.4831 9.10833 9.77147 8.6691 9.33274C8.22986 8.89402 7.51826 8.89402 7.07903 9.33274C6.63979 9.77147 6.63897 10.4831 7.07719 10.9228C7.28853 11.1344 7.57541 11.2531 7.87445 11.2528C8.1735 11.2524 8.4601 11.133 8.67094 10.9209V10.9228ZM13.1709 10.8291C12.7312 10.3908 12.0196 10.3917 11.5809 10.8309C11.1421 11.2701 11.1421 11.9817 11.5809 12.421C12.0196 12.8602 12.7312 12.861 13.1709 12.4228C13.3828 12.2117 13.5018 11.925 13.5018 11.6259C13.5018 11.3269 13.3828 11.0402 13.1709 10.8291ZM21.75 12C21.75 17.3848 17.3848 21.75 12 21.75C6.61522 21.75 2.25 17.3848 2.25 12C2.25 6.61522 6.61522 2.25 12 2.25C12.4142 2.25 12.75 2.58579 12.75 3C12.75 5.07107 14.4289 6.75 16.5 6.75C16.9142 6.75 17.25 7.08579 17.25 7.5C17.25 9.57107 18.9289 11.25 21 11.25C21.4142 11.25 21.75 11.5858 21.75 12ZM20.2209 12.6928C17.9139 12.3427 16.113 10.515 15.7969 8.20312C13.485 7.88699 11.6573 6.08608 11.3072 3.77906C6.94588 4.14666 3.63067 7.85607 3.75333 12.2311C3.87599 16.6062 7.39383 20.124 11.7689 20.2467C16.1439 20.3693 19.8533 17.0541 20.2209 12.6928Z" fill="#C4C4C4"/>
</g>
<defs>
<clipPath id="clip0_157_419">
<rect width="24" height="24" fill="white"/>
</clipPath>
</defs>
</svg>
