<svg width="24" height="24" viewBox="0 0 24 24" fill="none" xmlns="http://www.w3.org/2000/svg">
<g clip-path="url(#clip0_157_440)">
<path fill-rule="evenodd" clip-rule="evenodd" d="M22.1766 14.0081L18.1922 11.25L22.1766 8.49187C22.3791 8.35182 22.5 8.12125 22.5 7.875C22.5 7.62875 22.3791 7.39818 22.1766 7.25812L17.3016 3.88313C17.0449 3.70564 16.7051 3.70564 16.4484 3.88313L12 6.96281L7.55156 3.88313C7.29488 3.70564 6.95512 3.70564 6.69844 3.88313L1.82344 7.25812C1.6209 7.39818 1.50001 7.62875 1.50001 7.875C1.50001 8.12125 1.6209 8.35182 1.82344 8.49187L5.8125 11.25L1.82812 14.0081C1.62558 14.1482 1.5047 14.3787 1.5047 14.625C1.5047 14.8713 1.62558 15.1018 1.82812 15.2419L6.70312 18.6169C6.95981 18.7944 7.29957 18.7944 7.55625 18.6169L12 15.5372L16.4484 18.6169C16.7051 18.7944 17.0449 18.7944 17.3016 18.6169L22.1766 15.2419C22.3791 15.1018 22.5 14.8713 22.5 14.625C22.5 14.3787 22.3791 14.1482 22.1766 14.0081ZM12 13.7128L8.44219 11.25L12.0047 8.78719L15.5625 11.25L12 13.7128ZM16.875 5.41219L20.4375 7.875L16.875 10.3378L13.3172 7.875L16.875 5.41219ZM7.125 5.41219L10.6875 7.875L7.125 10.3378L3.56719 7.875L7.125 5.41219ZM7.125 17.0878L3.56719 14.625L7.12969 12.1622L10.6875 14.625L7.125 17.0878ZM16.875 17.0878L13.3172 14.625L16.875 12.1622L20.4375 14.625L16.875 17.0878ZM14.8566 19.3978C15.0927 19.7378 15.0088 20.2048 14.6691 20.4412L12.4294 21.9919C12.1727 22.1694 11.8329 22.1694 11.5763 21.9919L9.33375 20.4375C8.99503 20.2012 8.91109 19.7355 9.14599 19.3958C9.38089 19.0561 9.84621 18.9703 10.1869 19.2038L12 20.4628L13.8131 19.2075C14.1538 18.9719 14.621 19.0571 14.8566 19.3978Z" fill="#C4C4C4"/>
</g>
<defs>
<clipPath id="clip0_157_440">
<rect width="24" height="24" fill="white"/>
</clipPath>
</defs>
</svg>
