<svg width="24" height="24" viewBox="0 0 24 24" fill="none" xmlns="http://www.w3.org/2000/svg">
<g clip-path="url(#clip0_157_404)">
<path fill-rule="evenodd" clip-rule="evenodd" d="M18 2.25H9C8.17157 2.25 7.5 2.92157 7.5 3.75V5.25H6C5.17157 5.25 4.5 5.92157 4.5 6.75V21C4.49999 21.2809 4.657 21.5383 4.90681 21.6669C5.15662 21.7955 5.45732 21.7736 5.68594 21.6103L10.5 18.1716L15.315 21.6103C15.5436 21.7731 15.8439 21.7946 16.0934 21.6661C16.3429 21.5376 16.4998 21.2806 16.5 21V17.3147L18.3141 18.6103C18.5427 18.7736 18.8434 18.7955 19.0932 18.6669C19.343 18.5383 19.5 18.2809 19.5 18V3.75C19.5 2.92157 18.8284 2.25 18 2.25ZM15 19.5431L10.935 16.6369C10.6742 16.4506 10.3239 16.4506 10.0631 16.6369L6 19.5422V6.75H15V19.5431ZM18 16.5431L16.5 15.4688V6.75C16.5 5.92157 15.8284 5.25 15 5.25H9V3.75H18V16.5431Z" fill="#C4C4C4"/>
</g>
<defs>
<clipPath id="clip0_157_404">
<rect width="24" height="24" fill="white"/>
</clipPath>
</defs>
</svg>
