<svg width="15" height="15" viewBox="0 0 15 15" fill="none" xmlns="http://www.w3.org/2000/svg">
<g clip-path="url(#clip0_66_75)">
<path d="M1.875 8.75H3.75C4.08152 8.75 4.39946 8.8817 4.63388 9.11612C4.8683 9.35054 5 9.66848 5 10V11.875C5 12.2065 4.8683 12.5245 4.63388 12.7589C4.39946 12.9933 4.08152 13.125 3.75 13.125H3.125C2.79348 13.125 2.47554 12.9933 2.24112 12.7589C2.0067 12.5245 1.875 12.2065 1.875 11.875V7.5C1.875 6.00816 2.46763 4.57742 3.52252 3.52252C4.57742 2.46763 6.00816 1.875 7.5 1.875C8.99184 1.875 10.4226 2.46763 11.4775 3.52252C12.5324 4.57742 13.125 6.00816 13.125 7.5V11.875C13.125 12.2065 12.9933 12.5245 12.7589 12.7589C12.5245 12.9933 12.2065 13.125 11.875 13.125H11.25C10.9185 13.125 10.6005 12.9933 10.3661 12.7589C10.1317 12.5245 10 12.2065 10 11.875V10C10 9.66848 10.1317 9.35054 10.3661 9.11612C10.6005 8.8817 10.9185 8.75 11.25 8.75H13.125" stroke="#D9D9D9" stroke-width="2" stroke-linecap="round" stroke-linejoin="round"/>
</g>
<defs>
<clipPath id="clip0_66_75">
<rect width="15" height="15" fill="white"/>
</clipPath>
</defs>
</svg>
