<svg width="30" height="30" viewBox="0 0 30 30" fill="none" xmlns="http://www.w3.org/2000/svg">
<path d="M25.1151 10.9807C25.1151 11.6134 24.5879 12.109 23.9904 12.109H22.8656L22.8902 17.7399C22.8902 17.8348 22.8832 17.9297 22.8726 18.0246V18.594C22.8726 19.3708 22.2434 20 21.4666 20H20.9042C20.8656 20 20.8269 20 20.7883 19.9965C20.739 20 20.6898 20 20.6406 20L19.4983 19.9965H18.6547C17.8779 19.9965 17.2487 19.3673 17.2487 18.5905V17.7469V15.4974C17.2487 14.8752 16.7461 14.3726 16.1239 14.3726H13.8744C13.2522 14.3726 12.7496 14.8752 12.7496 15.4974V17.7469V18.5905C12.7496 19.3673 12.1204 19.9965 11.3436 19.9965H10.5H9.37876C9.32604 19.9965 9.27331 19.993 9.22059 19.9895C9.17841 19.993 9.13623 19.9965 9.09405 19.9965H8.53166C7.75486 19.9965 7.12568 19.3673 7.12568 18.5905V14.6538C7.12568 14.6221 7.12568 14.587 7.1292 14.5554V12.1054H6.00442C5.37173 12.1054 4.87964 11.6134 4.87964 10.9772C4.87964 10.6608 4.98509 10.3796 5.23113 10.1336L14.2399 2.2812C14.486 2.03515 14.7672 2 15.0132 2C15.2593 2 15.5404 2.0703 15.7513 2.24605L24.7285 10.1371C25.0097 10.3831 25.1503 10.6643 25.1151 10.9807Z" fill="black"/>
</svg>
