<svg width="21" height="23" viewBox="0 0 21 23" fill="none" xmlns="http://www.w3.org/2000/svg">
<g clip-path="url(#clip0_112_39)">
<path d="M10.0626 23C11.6484 23 12.9376 21.7107 12.9376 20.125H7.18762C7.18762 21.7152 8.47688 23 10.0626 23ZM19.7388 16.2752C18.8718 15.3408 17.2456 13.9393 17.2456 9.34375C17.2456 5.85332 14.7974 3.05918 11.5001 2.37187V1.4375C11.5001 0.642383 10.8577 0 10.0626 0C9.2675 0 8.62512 0.642383 8.62512 1.4375V2.37187C5.32785 3.05918 2.87961 5.85332 2.87961 9.34375C2.87961 13.9393 1.25344 15.3408 0.386448 16.2752C0.116917 16.5672 -0.00437199 16.9131 0.000120199 17.25C0.00461239 17.9867 0.584104 18.6875 1.44211 18.6875H18.6831C19.5411 18.6875 20.1206 17.9867 20.1251 17.25C20.1296 16.9086 20.0083 16.5627 19.7388 16.2752Z" fill="black"/>
</g>
<defs>
<clipPath id="clip0_112_39">
<rect width="20.125" height="23" fill="white"/>
</clipPath>
</defs>
</svg>
