<svg width="26" height="27" viewBox="0 0 26 27" fill="none" xmlns="http://www.w3.org/2000/svg">
<path d="M13.0001 4C7.50888 4 3.05981 8.47581 3.05981 14C3.05981 19.5242 7.50888 24 13.0001 24C18.4913 24 22.9403 19.5242 22.9403 14C22.9403 8.47581 18.4913 4 13.0001 4ZM6.587 14H5.30439C5.30439 9.72984 8.75542 6.25806 13.0001 6.25806V7.54839C9.46487 7.54839 6.587 10.4435 6.587 14ZM13.0001 17.871C10.8757 17.871 9.15223 16.1371 9.15223 14C9.15223 11.8629 10.8757 10.129 13.0001 10.129C15.1244 10.129 16.8479 11.8629 16.8479 14C16.8479 16.1371 15.1244 17.871 13.0001 17.871ZM13.0001 12.7097C12.2906 12.7097 11.7175 13.2863 11.7175 14C11.7175 14.7137 12.2906 15.2903 13.0001 15.2903C13.7095 15.2903 14.2827 14.7137 14.2827 14C14.2827 13.2863 13.7095 12.7097 13.0001 12.7097Z" fill="#D9D9D9"/>
</svg>
