<svg width="24" height="24" viewBox="0 0 24 24" fill="none" xmlns="http://www.w3.org/2000/svg">
<g clip-path="url(#clip0_157_426)">
<path fill-rule="evenodd" clip-rule="evenodd" d="M20.25 3.75H15.75C15.3358 3.75 15 4.08579 15 4.5C15 4.91421 15.3358 5.25 15.75 5.25H17.25V16.5797L10.4062 4.13812C10.2745 3.89892 10.0231 3.75024 9.75 3.75H3.75C3.33579 3.75 3 4.08579 3 4.5C3 4.91421 3.33579 5.25 3.75 5.25H5.25V18.75H3.75C3.33579 18.75 3 19.0858 3 19.5C3 19.9142 3.33579 20.25 3.75 20.25H8.25C8.66421 20.25 9 19.9142 9 19.5C9 19.0858 8.66421 18.75 8.25 18.75H6.75V7.42031L13.5938 19.8619C13.7255 20.1011 13.9769 20.2498 14.25 20.25H18C18.4142 20.25 18.75 19.9142 18.75 19.5V5.25H20.25C20.6642 5.25 21 4.91421 21 4.5C21 4.08579 20.6642 3.75 20.25 3.75ZM7.26844 5.25H9.30656L16.7316 18.75H14.6934L7.26844 5.25Z" fill="#C4C4C4"/>
</g>
<defs>
<clipPath id="clip0_157_426">
<rect width="24" height="24" fill="white"/>
</clipPath>
</defs>
</svg>
